<svg width="151" height="40" viewBox="0 0 151 40" fill="none" xmlns="http://www.w3.org/2000/svg">
<path d="M28.3156 0.909058C25.9123 0.909058 23.5325 1.39115 21.3121 2.32766C19.0917 3.26427 17.0743 4.63697 15.3748 6.36749C13.6755 8.09811 12.3275 10.1525 11.4077 12.4136C10.4881 14.6746 10.0146 17.0981 10.0146 19.5454C10.0146 21.9927 10.4881 24.4162 11.4077 26.6773C12.3275 28.9384 13.6755 30.9927 15.3748 32.7233C17.0743 34.4539 19.6899 35.427 21.9103 36.3636C24.1307 37.3001 25.9123 38.1818 28.3156 38.1818V29.7306C27.1139 29.7306 25.7656 29.1047 24.6554 28.6363C23.5452 28.1681 22.6949 26.9996 21.8452 26.1344C20.9955 25.2691 20.3216 24.2419 19.8617 23.1114C19.4018 21.9808 19.1651 21.2237 19.1651 20C19.1651 18.7762 19.4018 17.11 19.8617 15.9795C20.3216 14.849 20.9955 13.8217 21.8452 12.9565C22.6949 12.0912 23.7037 11.4048 24.8139 10.9366C25.9241 10.4682 27.1139 10.2272 28.3156 10.2272V0.909058Z" fill="#0F52FF"/>
<path d="M28.773 25.4545C32.058 25.4545 34.7208 22.809 34.7208 19.5454C34.7208 16.2819 32.058 13.6364 28.773 13.6364C25.4881 13.6364 22.8252 16.2819 22.8252 19.5454C22.8252 22.809 25.4881 25.4545 28.773 25.4545Z" fill="#0F52FF"/>
<path d="M10.0146 20C10.0146 22.3876 10.4999 24.752 11.4425 26.9579C12.3853 29.1638 13.767 31.1681 15.5089 32.8565C17.2508 34.5448 19.3187 35.8841 21.5945 36.7978C23.8704 37.7115 26.3098 38.1818 28.7732 38.1818C31.2365 38.1818 33.6759 37.7115 35.9518 36.7978C38.2277 35.8841 40.2955 34.5448 42.0374 32.8565C43.7793 31.1681 45.161 29.1638 46.1038 26.9579C47.0464 24.752 47.5317 22.3876 47.5317 20H38.1524C38.1524 21.1939 37.9098 22.376 37.4384 23.479C36.9671 24.5819 36.2762 25.5841 35.4053 26.4283C34.5344 27.2724 33.5004 27.942 32.3625 28.3989C31.2245 28.8558 30.0049 29.0909 28.7732 29.0909C27.5414 29.0909 26.3218 28.8558 25.1838 28.3989C24.0459 27.942 23.0119 27.2724 22.141 26.4283C21.2701 25.5841 20.5792 24.5819 20.1079 23.479C19.6365 22.376 19.3939 21.1939 19.3939 20H10.0146Z" fill="#5BD0F4"/>
<path d="M34.7208 20C34.7208 18.3123 34.0942 16.6937 32.9788 15.5003C31.8633 14.3068 30.3505 13.6364 28.7731 13.6364C27.1956 13.6364 25.6828 14.3068 24.5673 15.5003C23.4519 16.6937 22.8252 18.3123 22.8252 20H28.7731H34.7208Z" fill="#5BD0F4"/>
<path d="M57.5977 12.7273H54.8525V25.4546H57.5977V12.7273Z" fill="#0F52FF"/>
<path d="M58.5127 20.9091C58.5127 23.7196 60.6807 25.4546 63.5455 25.4546C66.4103 25.4546 68.5782 23.7196 68.5782 20.9091C68.5782 18.0986 66.4103 16.3636 63.5455 16.3636C60.6807 16.3636 58.5127 18.0986 58.5127 20.9091ZM60.9517 20.9091C60.9517 19.2436 62.0356 18.272 63.5455 18.272C65.0553 18.272 66.1393 19.2436 66.1393 20.9091C66.1393 22.5746 65.0553 23.5462 63.5455 23.5462C62.0356 23.5462 60.9517 22.5746 60.9517 20.9091Z" fill="#0F52FF"/>
<path d="M76.47 16.6098V17.7875H76.2947C75.7688 17.0317 74.9274 16.3636 73.4198 16.3636C71.3513 16.3636 69.4932 18.1216 69.4932 20.8287C69.4932 23.5359 71.3513 25.2938 73.4198 25.2938C74.9274 25.2938 75.7688 24.6082 76.2596 23.9227H76.4349V24.7665C76.4349 26.4541 75.4533 27.2275 74.0158 27.2275C72.5784 27.2275 71.8421 26.4541 71.5441 25.452L69.5633 26.3134C70.0191 27.6318 71.3513 29.0909 74.0509 29.0909C76.8206 29.0909 78.6437 27.6318 78.6437 24.8191V16.6098H76.47ZM74.0859 23.3953C72.7186 23.3953 71.7019 22.4109 71.7019 20.8287C71.7019 19.2466 72.7186 18.2622 74.0859 18.2622C75.4533 18.2622 76.47 19.2466 76.47 20.8287C76.47 22.4109 75.4533 23.3953 74.0859 23.3953Z" fill="#0F52FF"/>
<path d="M80.4736 20.9091C80.4736 23.7196 82.6416 25.4546 85.5065 25.4546C88.3713 25.4546 90.5392 23.7196 90.5392 20.9091C90.5392 18.0986 88.3713 16.3636 85.5065 16.3636C82.6416 16.3636 80.4736 18.0986 80.4736 20.9091ZM82.9126 20.9091C82.9126 19.2436 83.9966 18.272 85.5065 18.272C87.0163 18.272 88.1003 19.2436 88.1003 20.9091C88.1003 22.5746 87.0163 23.5462 85.5065 23.5462C83.9966 23.5462 82.9126 22.5746 82.9126 20.9091Z" fill="#0F52FF"/>
<path d="M92.3691 13.4336C92.3691 14.3915 92.9707 15.0489 93.7422 15.0489C94.5127 15.0489 95.1143 14.3915 95.1143 13.4336C95.1143 12.4757 94.5127 11.8182 93.7422 11.8182C92.9707 11.8182 92.3691 12.4757 92.3691 13.4336ZM94.7129 16.1383H92.7705V25.4546H94.7129V16.1383Z" fill="#5BD0F4"/>
<path d="M96.9443 29.0909H99.1535V24.3585H99.3282C99.819 25.0756 100.66 25.7567 102.168 25.7567C104.236 25.7567 106.095 23.9642 106.095 21.0602C106.095 18.1562 104.236 16.3636 102.168 16.3636C100.66 16.3636 99.819 17.0448 99.2937 17.8157H99.1179V16.6146H96.9443V29.0909ZM101.502 23.8208C100.135 23.8208 99.1179 22.8169 99.1179 21.0602C99.1179 19.3035 100.135 18.2996 101.502 18.2996C102.87 18.2996 103.886 19.3035 103.886 21.0602C103.886 22.8169 102.87 23.8208 101.502 23.8208Z" fill="#5BD0F4"/>
<path d="M108.261 19.0181C108.261 20.7183 109.788 21.3429 111.726 21.6899L112.21 21.7766C113.365 21.9847 113.887 22.245 113.887 22.8002C113.887 23.3554 113.365 23.789 112.285 23.789C111.204 23.789 110.329 23.3727 110.086 22.1235L107.925 22.644C108.242 24.4483 109.862 25.4546 112.285 25.4546C114.632 25.4546 116.16 24.431 116.16 22.6267C116.16 20.8223 114.595 20.3366 112.509 19.955L112.024 19.8682C111.055 19.6947 110.533 19.4518 110.533 18.8793C110.533 18.3588 111.018 18.0292 111.912 18.0292C112.807 18.0292 113.44 18.3761 113.663 19.313L115.788 18.7058C115.34 17.3179 113.981 16.3636 111.912 16.3636C109.713 16.3636 108.261 17.3179 108.261 19.0181Z" fill="#5BD0F4"/>
<path d="M126.226 25.3103V16.3636H123.824V20.9813C123.824 22.6407 122.967 23.6147 121.498 23.6147C120.202 23.6147 119.478 22.9474 119.478 21.5945V16.3636H117.075V21.7028C117.075 23.9214 118.544 25.4546 120.755 25.4546C122.489 25.4546 123.29 24.7331 123.672 23.9755H123.862V25.3103H126.226Z" fill="#5BD0F4"/>
<path d="M128.056 16.5079V25.4546H130.465V20.1155C130.465 18.8889 131.077 18.2035 132.185 18.2035C133.141 18.2035 133.714 18.7085 133.714 19.6826V25.4546H136.123V20.1155C136.123 18.8889 136.735 18.2035 137.843 18.2035C138.799 18.2035 139.372 18.7085 139.372 19.6826V25.4546H141.781V19.5743C141.781 17.4098 140.366 16.3636 138.608 16.3636C137.06 16.3636 136.353 17.013 135.894 17.7706H135.702C135.262 16.9229 134.479 16.3636 133.102 16.3636C131.726 16.3636 130.98 16.9408 130.618 17.6263H130.426V16.5079H128.056Z" fill="#5BD0F4"/>
</svg>
