<svg width="151" height="40" viewBox="0 0 151 40" fill="none" xmlns="http://www.w3.org/2000/svg">
<g clip-path="url(#clip0_613_86200)">
<path d="M43.7686 27.8587H54.5088V24.6448H47.5859V12.5389H43.7686V27.8587Z" fill="#728095"/>
<path d="M60.8721 25.7161C59.3408 25.7161 58.5429 24.3877 58.5429 22.395C58.5429 20.4024 59.3408 19.0525 60.8721 19.0525C62.4033 19.0525 63.2228 20.4024 63.2228 22.395C63.2228 24.3877 62.4033 25.7161 60.8721 25.7161ZM60.8936 28.2015C64.4521 28.2015 66.7813 25.6947 66.7813 22.395C66.7813 19.0954 64.4521 16.5885 60.8936 16.5885C57.3567 16.5885 54.9844 19.0954 54.9844 22.395C54.9844 25.6947 57.3567 28.2015 60.8936 28.2015Z" fill="#728095"/>
<path d="M72.9404 31.6512C74.5795 31.6512 76.0245 31.287 76.995 30.4299C77.8792 29.6371 78.4615 28.4373 78.4615 26.7875V16.8885H75.0971V18.067H75.0539C74.4069 17.1456 73.4149 16.5671 71.9484 16.5671C69.2094 16.5671 67.3115 18.8383 67.3115 22.0523C67.3115 25.4162 69.6192 27.2588 72.0993 27.2588C73.4365 27.2588 74.2776 26.7232 74.9246 25.9947H75.0108V27.0874C75.0108 28.4158 74.3854 29.1872 72.8973 29.1872C71.7327 29.1872 71.1504 28.6944 70.9563 28.1159H67.5488C67.8938 30.4085 69.8995 31.6512 72.9404 31.6512ZM72.9189 24.6663C71.6033 24.6663 70.7406 23.5949 70.7406 21.9451C70.7406 20.2739 71.6033 19.2026 72.9189 19.2026C74.3854 19.2026 75.1618 20.4453 75.1618 21.9237C75.1618 23.4664 74.4501 24.6663 72.9189 24.6663Z" fill="#728095"/>
<path d="M85.3799 25.7161C83.8487 25.7161 83.0507 24.3877 83.0507 22.395C83.0507 20.4024 83.8487 19.0525 85.3799 19.0525C86.9111 19.0525 87.7306 20.4024 87.7306 22.395C87.7306 24.3877 86.9111 25.7161 85.3799 25.7161ZM85.4015 28.2015C88.96 28.2015 91.2894 25.6947 91.2894 22.395C91.2894 19.0954 88.96 16.5885 85.4015 16.5885C81.8645 16.5885 79.4922 19.0954 79.4922 22.395C79.4922 25.6947 81.8645 28.2015 85.4015 28.2015Z" fill="#728095"/>
<path d="M92.3154 27.8587H95.8308V16.8885H92.3154V27.8587ZM92.3154 15.3672H95.8308V12.5389H92.3154V15.3672Z" fill="#728095"/>
<path d="M97.3555 31.4798H100.871V26.7232H100.914C101.604 27.6445 102.618 28.2016 104.041 28.2016C106.931 28.2016 108.85 25.9304 108.85 22.3736C108.85 19.074 107.06 16.5671 104.127 16.5671C102.618 16.5671 101.539 17.2314 100.785 18.217H100.72V16.8885H97.3555V31.4798ZM103.135 25.5019C101.626 25.5019 100.763 24.2806 100.763 22.5022C100.763 20.7238 101.539 19.374 103.071 19.374C104.58 19.374 105.292 20.6167 105.292 22.5022C105.292 24.3663 104.472 25.5019 103.135 25.5019Z" fill="#728095"/>
<path d="M114.574 28.2016C117.464 28.2016 119.599 26.9589 119.599 24.5591C119.599 21.7523 117.313 21.2595 115.372 20.9381C113.97 20.681 112.719 20.5738 112.719 19.8025C112.719 19.1169 113.388 18.7955 114.251 18.7955C115.221 18.7955 115.89 19.0954 116.019 20.081H119.254C119.082 17.917 117.399 16.5671 114.272 16.5671C111.663 16.5671 109.506 17.767 109.506 20.081C109.506 22.6522 111.555 23.1664 113.474 23.4878C114.941 23.7449 116.278 23.8521 116.278 24.8377C116.278 25.5447 115.609 25.9304 114.553 25.9304C113.388 25.9304 112.655 25.3947 112.525 24.302H109.204C109.312 26.7232 111.339 28.2016 114.574 28.2016Z" fill="#728095"/>
<path d="M124.374 28.1802C125.905 28.1802 126.876 27.5802 127.674 26.5089H127.739V27.8588H131.103V16.8885H127.588V23.0165C127.588 24.3235 126.854 25.2234 125.647 25.2234C124.525 25.2234 123.986 24.5591 123.986 23.3593V16.8885H120.492V24.0878C120.492 26.5304 121.829 28.1802 124.374 28.1802Z" fill="#728095"/>
<path d="M132.633 27.8588H136.148V21.7094C136.148 20.4024 136.795 19.4811 137.895 19.4811C138.952 19.4811 139.448 20.1667 139.448 21.3452V27.8588H142.963V21.7094C142.963 20.4024 143.589 19.4811 144.71 19.4811C145.767 19.4811 146.263 20.1667 146.263 21.3452V27.8588H149.778V20.7238C149.778 18.2598 148.527 16.5671 146.026 16.5671C144.602 16.5671 143.416 17.1671 142.553 18.4955H142.51C141.95 17.3171 140.85 16.5671 139.405 16.5671C137.809 16.5671 136.752 17.3171 136.062 18.4526H135.997V16.8885H132.633V27.8588Z" fill="#728095"/>
<path fill-rule="evenodd" clip-rule="evenodd" d="M7.84476 5.62719C6.55915 6.52027 5.39662 7.57618 4.38743 8.76482C8.51143 8.38444 13.7508 9.00556 19.8337 12.0272C26.3294 15.2538 31.56 15.3629 35.2003 14.6653C34.87 13.6718 34.4541 12.7169 33.9616 11.8091C29.7944 12.2458 24.4522 11.6678 18.2263 8.57518C14.2727 6.61129 10.7877 5.8023 7.84476 5.62719ZM31.5273 8.36687C28.2365 4.71401 23.4542 2.41516 18.1314 2.41516C16.5682 2.41516 15.0516 2.61345 13.6057 2.98606C15.5639 3.5169 17.6442 4.29351 19.8337 5.38115C24.392 7.64542 28.3274 8.37447 31.5273 8.36687ZM35.9786 18.1528C31.5808 19.0156 25.5079 18.8384 18.2263 15.2212C11.4187 11.8396 6.00054 11.8822 2.34631 12.689C2.15769 12.7306 1.97351 12.7744 1.79378 12.8199C1.31535 13.8536 0.933453 14.9406 0.659438 16.0695C0.952101 15.9918 1.25452 15.918 1.56655 15.849C5.99976 14.8703 12.2635 14.9128 19.8337 18.6733C26.6413 22.0549 32.0595 22.0123 35.7138 21.2055C35.8389 21.1779 35.9623 21.1493 36.0836 21.1199C36.0969 20.8384 36.1036 20.5551 36.1036 20.2703C36.1036 19.5539 36.0612 18.8473 35.9786 18.1528ZM35.4968 24.888C31.1417 25.6444 25.2457 25.3541 18.2263 21.8673C11.4187 18.4857 6.00054 18.5283 2.34631 19.3351C1.53518 19.5141 0.805496 19.7322 0.161813 19.9624C0.160058 20.0648 0.15918 20.1675 0.15918 20.2703C0.15918 30.1315 8.2056 38.1255 18.1314 38.1255C26.4499 38.1255 33.4485 32.5109 35.4968 24.888Z" fill="#7F57F1"/>
</g>
<defs>
<clipPath id="clip0_613_86200">
<rect width="150.068" height="40" fill="white" transform="translate(0.0683594)"/>
</clipPath>
</defs>
</svg>
