<svg width="151" height="40" viewBox="0 0 151 40" fill="none" xmlns="http://www.w3.org/2000/svg">
<path d="M23.7572 29.4629L4.2484 16.0933C2.27142 14.7385 2.94346 11.9177 5.40871 11.2543L26.1431 5.6634C26.5823 5.50594 27.053 5.45483 27.5161 5.51431C27.9792 5.57378 28.4213 5.74212 28.8058 6.00537C29.1903 6.26861 29.506 6.61916 29.7268 7.02791C29.9476 7.43667 30.0671 7.89185 30.0753 8.35568L28.8465 27.3151C28.7008 29.5655 25.7342 30.8176 23.7572 29.4629Z" fill="#E9327C"/>
<path d="M17.57 32.7634L6.0767 10.4333C5.81398 9.9225 5.69837 9.34948 5.74262 8.7775C5.78687 8.20552 5.98926 7.65679 6.32747 7.19183C6.66569 6.72687 7.12658 6.36374 7.65934 6.14248C8.19209 5.92122 8.77599 5.85043 9.34667 5.93793L30.6466 9.20388C31.1369 9.27908 31.6023 9.46885 32.0046 9.75758C32.4067 10.0463 32.7341 10.4258 32.96 10.8647C33.1858 11.3037 33.3035 11.7896 33.3034 12.2826C33.3033 12.7756 33.1854 13.2615 32.9596 13.7004L23.1475 32.7645C22.884 33.2739 22.4843 33.7013 21.9922 33.9996C21.5001 34.298 20.9349 34.4557 20.3584 34.4556C19.782 34.4555 19.2167 34.2976 18.7247 33.9991C18.2328 33.7004 17.8333 33.2729 17.57 32.7634Z" fill="#1DACE3"/>
<path d="M30.0233 9.10773L19.4055 7.47961L6.36914 10.9962L11.5726 21.1095L23.7575 29.4629C24.0263 29.6452 24.322 29.7848 24.6339 29.8767L29.2621 20.8848L30.0233 9.10773Z" fill="#001A49"/>
<path d="M83.8047 11.7179C83.8047 11.3258 83.9217 10.9426 84.1409 10.6165C84.3603 10.2905 84.6719 10.0364 85.0365 9.88638C85.4012 9.73633 85.8023 9.69707 86.1895 9.77356C86.5765 9.85007 86.9321 10.0389 87.2111 10.3161C87.4903 10.5934 87.6802 10.9466 87.7572 11.3312C87.8342 11.7158 87.7948 12.1144 87.6437 12.4766C87.4927 12.8389 87.2369 13.1485 86.9088 13.3663C86.5806 13.5842 86.1948 13.7004 85.8002 13.7004C85.2725 13.6951 84.7682 13.4845 84.3951 13.1139C84.0221 12.7432 83.81 12.2421 83.8047 11.7179ZM84.1374 14.6695H87.4639V25.6828H84.1374V14.6695Z" fill="#728095"/>
<path d="M101.829 20.1761C101.868 20.904 101.762 21.6324 101.516 22.3193C101.27 23.0061 100.89 23.638 100.398 24.1785C99.9055 24.7189 99.3104 25.1573 98.6468 25.4686C97.9833 25.7797 97.2644 25.9576 96.5314 25.9917C95.915 26.025 95.2987 25.9217 94.7272 25.6893C94.1559 25.4568 93.6437 25.1011 93.2278 24.6477V30.0885H89.9023V14.6694H93.2278V15.7044C93.6438 15.2512 94.156 14.8957 94.7275 14.6634C95.2988 14.4312 95.9151 14.328 96.5314 14.3615C97.2644 14.3955 97.9832 14.5732 98.6467 14.8842C99.3103 15.1954 99.9054 15.6337 100.398 16.1741C100.89 16.7145 101.27 17.3462 101.516 18.0331C101.762 18.7199 101.868 19.4481 101.829 20.1761ZM98.5041 20.1761C98.491 19.6604 98.3252 19.1601 98.0273 18.7376C97.7295 18.3151 97.3128 17.9893 96.8295 17.801C96.3461 17.6126 95.8176 17.5701 95.3101 17.6787C94.8026 17.7873 94.3385 18.0421 93.976 18.4114C93.6136 18.7807 93.3688 19.248 93.2723 19.7548C93.1759 20.2616 93.2321 20.7855 93.4338 21.2608C93.6356 21.736 93.9739 22.1416 94.4064 22.4268C94.8391 22.712 95.3468 22.864 95.8659 22.864C96.2225 22.88 96.5783 22.8208 96.9102 22.6905C97.2421 22.5601 97.5424 22.3615 97.7916 22.1077C98.0407 21.8538 98.233 21.5505 98.3558 21.2176C98.4786 20.8847 98.5292 20.5297 98.5041 20.1761Z" fill="#728095"/>
<path d="M112.094 22.3768C112.094 24.9103 109.877 25.9895 107.482 25.9895C106.515 26.0765 105.543 25.8731 104.694 25.4056C103.844 24.9382 103.155 24.2282 102.716 23.3675L105.598 21.7383C105.715 22.1362 105.966 22.482 106.309 22.718C106.652 22.9539 107.066 23.0657 107.482 23.0347C108.28 23.0347 108.678 22.7917 108.678 22.3519C108.678 21.1398 103.225 21.7793 103.225 17.9678C103.225 15.5672 105.264 14.3561 107.575 14.3561C108.441 14.3291 109.299 14.5334 110.059 14.9479C110.82 15.3623 111.454 15.9716 111.897 16.7124L109.06 18.2325C108.936 17.9434 108.729 17.697 108.465 17.5241C108.2 17.3511 107.891 17.2594 107.575 17.2602C106.998 17.2602 106.644 17.4762 106.644 17.8771C106.64 19.1411 112.094 18.3038 112.094 22.3768Z" fill="#728095"/>
<path d="M124.248 14.6696V25.6828H120.923V24.6457C120.539 25.1026 120.051 25.4626 119.499 25.6962C118.949 25.9298 118.35 26.0304 117.752 25.9897C115.513 25.9897 113.606 24.4037 113.606 21.4294V14.6696H116.932V20.9476C116.904 21.2101 116.934 21.4756 117.02 21.7253C117.106 21.9751 117.245 22.2034 117.429 22.3942C117.613 22.585 117.836 22.7336 118.082 22.8299C118.33 22.9263 118.596 22.9678 118.861 22.9517C120.08 22.9517 120.927 22.2473 120.927 20.6829V14.6696H124.248Z" fill="#728095"/>
<path d="M143.309 18.9197V25.6828H139.983V19.2071C139.983 18.1062 139.451 17.4007 138.387 17.4007C137.278 17.4007 136.658 18.1721 136.658 19.4718V25.6828H133.332V19.2071C133.332 18.1062 132.8 17.4007 131.735 17.4007C130.627 17.4007 130.006 18.1721 130.006 19.4718V25.6828H126.681V14.6695H130.012V15.6786C130.356 15.2293 130.809 14.8729 131.327 14.6421C131.846 14.4113 132.416 14.3134 132.982 14.3573C133.551 14.3297 134.119 14.449 134.628 14.7037C135.137 14.9583 135.571 15.3396 135.887 15.8104C136.256 15.3178 136.744 14.9261 137.306 14.672C137.868 14.4178 138.487 14.3096 139.103 14.3573C141.647 14.3616 143.309 16.1669 143.309 18.9197Z" fill="#728095"/>
<path d="M146.127 14.6014C147.49 14.6014 148.595 13.5034 148.595 12.149C148.595 10.7945 147.49 9.69653 146.127 9.69653C144.763 9.69653 143.658 10.7945 143.658 12.149C143.658 13.5034 144.763 14.6014 146.127 14.6014Z" fill="#728095"/>
<path d="M38.4023 9.60364H41.7288V25.6828H38.4023V9.60364ZM43.6123 20.1762C43.6087 19.0215 43.95 17.8917 44.593 16.93C45.236 15.9681 46.1518 15.2175 47.2245 14.7731C48.2973 14.3288 49.4785 14.2106 50.6189 14.4336C51.7592 14.6567 52.8072 15.2108 53.6303 16.0261C54.4534 16.8412 55.0145 17.8806 55.2426 19.0128C55.4706 20.1451 55.3555 21.319 54.9116 22.3861C54.4677 23.4532 53.715 24.3654 52.749 25.0073C51.7829 25.6491 50.6468 25.9918 49.4845 25.9918C48.7127 25.9999 47.9469 25.8553 47.2319 25.5661C46.517 25.277 45.8671 24.8492 45.3205 24.3078C44.7737 23.7664 44.3411 23.1221 44.0478 22.4128C43.7546 21.7034 43.6066 20.943 43.6123 20.1762ZM52.0379 20.1762C52.0248 19.678 51.8643 19.1949 51.5762 18.787C51.2883 18.3792 50.8856 18.0647 50.4187 17.883C49.9516 17.7014 49.4412 17.6604 48.9509 17.7656C48.4607 17.8706 48.0126 18.117 47.6625 18.4737C47.3125 18.8306 47.0762 19.282 46.983 19.7715C46.8899 20.2611 46.944 20.767 47.1389 21.2262C47.3337 21.6852 47.6605 22.0771 48.0783 22.3527C48.4961 22.6283 48.9864 22.7753 49.4878 22.7756C49.8312 22.7853 50.173 22.7241 50.4914 22.5961C50.8099 22.4682 51.0982 22.276 51.3382 22.0317C51.5782 21.7876 51.7647 21.4966 51.8858 21.1773C52.007 20.8578 52.0603 20.5169 52.0422 20.1762H52.0379ZM68.6204 14.6663V25.1297C68.6204 28.8299 65.7158 30.3932 62.7677 30.3932C61.7301 30.471 60.6908 30.2635 59.7639 29.7933C58.837 29.3232 58.0583 28.6086 57.5132 27.728L60.3503 26.0977C60.5794 26.5573 60.9442 26.9365 61.396 27.1846C61.8479 27.4327 62.3651 27.5378 62.8787 27.486C63.2065 27.5304 63.5402 27.5012 63.8551 27.4004C64.17 27.2996 64.4581 27.13 64.6982 26.9037C64.9382 26.6776 65.124 26.4008 65.242 26.0937C65.36 25.7866 65.4071 25.4571 65.3798 25.1297V24.1163C64.9903 24.5895 64.4945 24.9655 63.9324 25.2141C63.3702 25.4626 62.7572 25.5769 62.1425 25.5478C60.6793 25.5025 59.2912 24.8933 58.2722 23.849C57.2533 22.8047 56.6835 21.4075 56.6835 19.9531C56.6835 18.4986 57.2533 17.1013 58.2722 16.0571C59.2912 15.0128 60.6793 14.4035 62.1425 14.3583C62.7572 14.3291 63.3702 14.4434 63.9324 14.692C64.4945 14.9406 64.9903 15.3166 65.3798 15.7899V14.6663H68.6204ZM65.3841 19.9525C65.4061 19.4206 65.2673 18.8943 64.9858 18.4413C64.7043 17.9883 64.2928 17.6293 63.8042 17.4105C63.3157 17.1918 62.7724 17.1232 62.2443 17.2136C61.7163 17.304 61.2275 17.5493 60.8408 17.9179C60.4541 18.2865 60.1872 18.7615 60.0746 19.282C59.9618 19.8025 60.0083 20.3445 60.2082 20.8386C60.408 21.3325 60.752 21.7558 61.1959 22.054C61.6398 22.3522 62.1634 22.5116 62.6992 22.5119C63.0486 22.5363 63.3993 22.4877 63.7287 22.3694C64.0581 22.2511 64.3589 22.0656 64.6118 21.8248C64.8647 21.5841 65.0641 21.2934 65.1971 20.9716C65.3301 20.6496 65.3938 20.3036 65.3841 19.9558V19.9525ZM70.5039 20.1686C70.5003 19.0139 70.8415 17.8842 71.4845 16.9224C72.1275 15.9606 73.0434 15.2099 74.116 14.7656C75.1888 14.3212 76.37 14.203 77.5104 14.4261C78.6507 14.6491 79.6987 15.2032 80.5219 16.0185C81.345 16.8336 81.9061 17.8731 82.1341 19.0053C82.3622 20.1375 82.247 21.3114 81.8031 22.3785C81.3592 23.4456 80.6066 24.3579 79.6405 24.9997C78.6744 25.6416 77.5383 25.9842 76.3761 25.9842C75.6049 25.9923 74.8397 25.8479 74.1253 25.5592C73.4108 25.2707 72.7613 24.8435 72.2147 24.3029C71.6681 23.7623 71.2354 23.119 70.9417 22.4104C70.6478 21.7019 70.4991 20.9424 70.5039 20.1762V20.1686ZM78.9294 20.1686C78.9166 19.6702 78.7561 19.1867 78.4681 18.7784C78.18 18.3702 77.7772 18.0555 77.31 17.8736C76.8427 17.6917 76.3319 17.6507 75.8414 17.7558C75.3508 17.8608 74.9024 18.1074 74.5522 18.4643C74.2019 18.8214 73.9654 19.2731 73.8723 19.7629C73.7791 20.2528 73.8335 20.7592 74.0285 21.2184C74.2236 21.6778 74.5506 22.0697 74.9687 22.3455C75.3869 22.6211 75.8776 22.768 76.3793 22.768C76.7218 22.777 77.0623 22.7157 77.3797 22.5879C77.6971 22.4601 77.9845 22.2684 78.224 22.0251C78.4633 21.7818 78.6496 21.492 78.771 21.1738C78.8924 20.8556 78.9464 20.516 78.9294 20.1762V20.1686Z" fill="#728095"/>
</svg>
