<svg width="151" height="40" viewBox="0 0 151 40" fill="none" xmlns="http://www.w3.org/2000/svg">
<path d="M27.904 0L0.135742 23.1397H18.8854L11.3836 39.9763L39.3972 16.9908H19.869L27.904 0Z" fill="#3182CE"/>
<path d="M27.9042 0L15.3613 18.6819L33.9983 18.6819L11.3838 39.9763L39.3974 16.9908L19.8692 16.9908L27.9042 0Z" fill="#2B6CB0"/>
<path d="M27.904 0L0.135742 23.1397H18.8854L11.3836 39.9763L23.2999 21.4486H5.67979L27.904 0Z" fill="#4299E1"/>
<path d="M106.173 28.3403C104.937 28.3403 103.802 28.2312 102.77 28.0131C101.737 27.7804 100.799 27.475 99.9559 27.0969C99.127 26.7042 98.3708 26.2607 97.6873 25.7663L99.3888 22.7996C100.581 23.6431 101.781 24.2611 102.988 24.6538C104.195 25.0319 105.351 25.2209 106.456 25.2209C106.936 25.2209 107.438 25.1773 107.962 25.09C108.485 24.9882 108.921 24.821 109.27 24.5883C109.634 24.3411 109.816 24.0066 109.816 23.5849C109.816 23.3377 109.728 23.1341 109.554 22.9741C109.394 22.7996 109.169 22.6614 108.878 22.5596C108.587 22.4579 108.245 22.3779 107.852 22.3197C107.474 22.247 107.06 22.1961 106.609 22.167C106.173 22.1234 105.729 22.0797 105.278 22.0361C104.26 21.9343 103.337 21.7671 102.508 21.5344C101.679 21.3017 100.967 21.0036 100.37 20.64C99.7887 20.2619 99.3379 19.8039 99.0179 19.2658C98.698 18.7277 98.538 18.1097 98.538 17.4116C98.538 16.6263 98.7271 15.9283 99.1052 15.3175C99.4978 14.7067 100.043 14.1977 100.741 13.7905C101.439 13.3688 102.239 13.0489 103.141 12.8307C104.057 12.6126 105.038 12.5035 106.086 12.5035C107.176 12.5035 108.158 12.6053 109.03 12.8089C109.917 12.998 110.696 13.2597 111.364 13.5942C112.048 13.9287 112.615 14.2923 113.066 14.6849L111.277 17.2589C110.826 16.9244 110.303 16.6409 109.707 16.4082C109.125 16.161 108.507 15.9719 107.852 15.841C107.213 15.7102 106.573 15.6447 105.933 15.6447C105.278 15.6447 104.689 15.7029 104.166 15.8192C103.657 15.921 103.25 16.081 102.944 16.2991C102.654 16.5027 102.508 16.7718 102.508 17.1062C102.508 17.4116 102.632 17.6661 102.879 17.8697C103.141 18.0588 103.475 18.2115 103.882 18.3278C104.29 18.4296 104.74 18.5096 105.235 18.5677C105.729 18.6259 106.209 18.6841 106.675 18.7423C107.547 18.8295 108.405 18.9458 109.249 19.0913C110.092 19.2222 110.848 19.4403 111.517 19.7457C112.201 20.0365 112.746 20.4583 113.153 21.0109C113.56 21.5489 113.764 22.2833 113.764 23.2141C113.764 24.2902 113.437 25.2136 112.782 25.9844C112.128 26.7406 111.226 27.3223 110.077 27.7295C108.943 28.1367 107.642 28.3403 106.173 28.3403Z" fill="#728095"/>
<path d="M138.322 28.2994V24.981H142.423V16.1246H138.322L138.249 12.9252H150.254V16.1246H146.131V24.981H150.254V28.2994H138.322Z" fill="#728095"/>
<path d="M44.9727 25.7932L45.0138 28.2994H60.3925L60.3513 24.9643H50.75L60.1113 15.4317V12.9252H46.4619V16.4352H54.181L44.9727 25.7932Z" fill="#728095"/>
<path d="M63.4828 28.2994V12.9252H77.1818V16.0155H67.0821V18.8513H76.2002V21.8616H67.0821V25.0952H77.4V28.2994H63.4828Z" fill="#728095"/>
<path d="M128.895 28.253C127.266 28.253 125.848 27.9331 124.641 27.2932C123.434 26.6533 122.496 25.7735 121.827 24.6538C121.158 23.534 120.824 22.167 120.824 20.7273V12.9252H124.576V20.7273C124.576 26.0002 133.323 26.0002 133.323 20.7273V12.9252H136.944V20.7273C136.944 22.167 136.609 23.534 135.94 24.6538C135.271 25.7735 134.334 26.6533 133.126 27.2932C131.919 27.9331 130.509 28.253 128.895 28.253Z" fill="#728095"/>
<path d="M80.0891 20.7273V12.9252H83.8411V20.7273C83.8411 26.1744 92.5884 26.1744 92.5884 20.7273V12.9252H96.2094V20.7273C96.2094 30.8844 80.0891 30.8164 80.0891 20.7273Z" fill="#728095"/>
</svg>
