<svg width="151" height="40" viewBox="0 0 151 40" fill="none" xmlns="http://www.w3.org/2000/svg">
<g clip-path="url(#clip0_613_86187)">
<path d="M23.4801 26.3636H31.1116L12.2068 7.27271H4.5752L23.4801 26.3636Z" fill="#7476ED"/>
<path d="M15.5557 7.27271L34.7717 25.4545V7.27271H29.5715V13.013L23.5046 7.27271L15.5557 7.27271Z" fill="#E56F8C"/>
<path d="M0.915039 8.18176V26.3636H5.85458V20.6383L11.6173 26.3636H19.216L0.915039 8.18176Z" fill="#64C2DB"/>
<path d="M46.5721 23.6286H51.2423V26.3637H43.0068V11.8182H46.5721V23.6286Z" fill="#728095"/>
<path d="M57.15 26.3636C56.0288 26.3636 55.0169 26.1234 54.1145 25.6429C53.2257 25.1625 52.5216 24.4762 52.002 23.5841C51.4961 22.6918 51.2432 21.6486 51.2432 20.4544C51.2432 19.2741 51.5029 18.2377 52.0225 17.3456C52.5421 16.4396 53.2531 15.7464 54.1555 15.266C55.058 14.7856 56.0698 14.5454 57.191 14.5454C58.3122 14.5454 59.324 14.7856 60.2265 15.266C61.1289 15.7464 61.8398 16.4396 62.3595 17.3456C62.8791 18.2377 63.1388 19.2741 63.1388 20.4544C63.1388 21.6349 62.8722 22.6781 62.3389 23.5841C61.8194 24.4762 61.1015 25.1625 60.1854 25.6429C59.283 26.1234 58.2711 26.3636 57.15 26.3636ZM57.15 23.3164C57.82 23.3164 58.3874 23.0693 58.8523 22.5752C59.3308 22.081 59.5701 21.3742 59.5701 20.4544C59.5701 19.5348 59.3377 18.828 58.8728 18.3338C58.4216 17.8397 57.861 17.5926 57.191 17.5926C56.5073 17.5926 55.9398 17.8397 55.4887 18.3338C55.0374 18.8142 54.8119 19.5212 54.8119 20.4544C54.8119 21.3742 55.0306 22.081 55.4682 22.5752C55.9194 23.0693 56.48 23.3164 57.15 23.3164Z" fill="#728095"/>
<path d="M68.107 14.5454C68.9014 14.5454 69.5948 14.7097 70.1872 15.0383C70.7931 15.3669 71.2576 15.7983 71.5807 16.3322V14.7097H75.0343V26.1496C75.0343 27.2039 74.8256 28.1554 74.4082 29.0043C74.0043 29.8669 73.3782 30.5516 72.5299 31.0582C71.6952 31.5648 70.6517 31.8181 69.3995 31.8181C67.7299 31.8181 66.3769 31.4142 65.3401 30.6063C64.3033 29.8122 63.7109 28.7305 63.5628 27.3613H66.976C67.0837 27.7995 67.3395 28.1417 67.7434 28.3882C68.1474 28.6483 68.6455 28.7784 69.238 28.7784C69.9516 28.7784 70.517 28.5663 70.9345 28.1417C71.3653 27.731 71.5807 27.0669 71.5807 26.1496V24.527C71.2441 25.061 70.7796 25.4991 70.1872 25.8415C69.5948 26.17 68.9014 26.3344 68.107 26.3344C67.178 26.3344 66.3364 26.0948 65.5825 25.6155C64.8284 25.1226 64.2293 24.4312 63.785 23.5412C63.3542 22.6375 63.1387 21.5969 63.1387 20.4194C63.1387 19.2418 63.3542 18.2081 63.785 17.3181C64.2293 16.4281 64.8284 15.7435 65.5825 15.2642C66.3364 14.785 67.178 14.5454 68.107 14.5454ZM71.5807 20.4399C71.5807 19.5636 71.3384 18.8722 70.8537 18.3655C70.3825 17.8589 69.8034 17.6056 69.1168 17.6056C68.4301 17.6056 67.8445 17.8589 67.3598 18.3655C66.8884 18.8584 66.6528 19.5431 66.6528 20.4194C66.6528 21.2957 66.8884 21.9939 67.3598 22.5143C67.8445 23.0209 68.4301 23.2741 69.1168 23.2741C69.8034 23.2741 70.3825 23.0209 70.8537 22.5143C71.3384 22.0077 71.5807 21.3162 71.5807 20.4399Z" fill="#728095"/>
<path d="M82.3167 26.3636C81.2817 26.3636 80.3478 26.1234 79.5147 25.6429C78.6944 25.1625 78.0443 24.4762 77.5648 23.5841C77.0978 22.6918 76.8643 21.6486 76.8643 20.4544C76.8643 19.2741 77.1041 18.2377 77.5836 17.3456C78.0633 16.4396 78.7196 15.7464 79.5526 15.266C80.3856 14.7856 81.3196 14.5454 82.3545 14.5454C83.3895 14.5454 84.3235 14.7856 85.1565 15.266C85.9895 15.7464 86.6458 16.4396 87.1254 17.3456C87.605 18.2377 87.8448 19.2741 87.8448 20.4544C87.8448 21.6349 87.5987 22.6781 87.1065 23.5841C86.6268 24.4762 85.9643 25.1625 85.1186 25.6429C84.2856 26.1234 83.3516 26.3636 82.3167 26.3636ZM82.3167 23.3164C82.9351 23.3164 83.4589 23.0693 83.888 22.5752C84.3298 22.081 84.5507 21.3742 84.5507 20.4544C84.5507 19.5348 84.3361 18.828 83.907 18.3338C83.4904 17.8397 82.973 17.5926 82.3545 17.5926C81.7235 17.5926 81.1997 17.8397 80.7832 18.3338C80.3666 18.8142 80.1584 19.5212 80.1584 20.4544C80.1584 21.3742 80.3604 22.081 80.7642 22.5752C81.1808 23.0693 81.6982 23.3164 82.3167 23.3164Z" fill="#728095"/>
<path d="M91.0587 13.7794C90.3825 13.7794 89.8266 13.6023 89.3908 13.2482C88.9701 12.8805 88.7598 12.4311 88.7598 11.8999C88.7598 11.3551 88.9701 10.9057 89.3908 10.5516C89.8266 10.1839 90.3825 10 91.0587 10C91.7198 10 92.2607 10.1839 92.6814 10.5516C93.1171 10.9057 93.335 11.3551 93.335 11.8999C93.335 12.4311 93.1171 12.8805 92.6814 13.2482C92.2607 13.6023 91.7198 13.7794 91.0587 13.7794ZM92.9744 14.9643V26.3636H89.1203V14.9643H92.9744Z" fill="#728095"/>
<path d="M98.3527 16.3516C98.6639 15.8118 99.0924 15.3758 99.6391 15.0437C100.186 14.7115 100.826 14.5454 101.56 14.5454C102.417 14.5454 103.194 14.7876 103.89 15.272C104.586 15.7564 105.133 16.4485 105.53 17.3481C105.941 18.2477 106.146 19.2926 106.146 20.4829C106.146 21.6732 105.941 22.7251 105.53 23.6385C105.133 24.5381 104.586 25.237 103.89 25.7353C103.194 26.2197 102.417 26.4619 101.56 26.4619C100.839 26.4619 100.198 26.2958 99.6391 25.9637C99.0924 25.6315 98.6639 25.2024 98.3527 24.6765V31.8181H95.165V14.7115H98.3527V16.3516ZM102.902 20.4829C102.902 19.5971 102.678 18.9051 102.231 18.4068C101.796 17.8947 101.255 17.6387 100.609 17.6387C99.9746 17.6387 99.4343 17.8947 98.9869 18.4068C98.5521 18.919 98.3347 19.6179 98.3347 20.5036C98.3347 21.3894 98.5521 22.0884 98.9869 22.6005C99.4343 23.1126 99.9746 23.3686 100.609 23.3686C101.243 23.3686 101.783 23.1126 102.231 22.6005C102.678 22.0745 102.902 21.3687 102.902 20.4829Z" fill="#728095"/>
<path d="M112.416 26.3636C111.402 26.3636 110.499 26.192 109.708 25.8488C108.915 25.5057 108.29 25.039 107.832 24.4488C107.373 23.8449 107.116 23.1722 107.061 22.431H110.583C110.624 22.8291 110.812 23.1517 111.145 23.3988C111.478 23.6458 111.889 23.7694 112.375 23.7694C112.819 23.7694 113.159 23.687 113.396 23.5223C113.646 23.3439 113.771 23.1173 113.771 22.8429C113.771 22.5134 113.597 22.2732 113.25 22.1222C112.902 21.9575 112.339 21.7791 111.562 21.5869C110.728 21.3947 110.033 21.1957 109.478 20.9898C108.922 20.7702 108.443 20.4339 108.04 19.9809C107.637 19.5143 107.436 18.8897 107.436 18.1073C107.436 17.4485 107.616 16.8514 107.977 16.316C108.352 15.767 108.895 15.3347 109.603 15.019C110.326 14.7033 111.18 14.5454 112.166 14.5454C113.625 14.5454 114.772 14.9023 115.604 15.616C116.452 16.3298 116.939 17.2769 117.064 18.4574H113.771C113.715 18.0593 113.534 17.7436 113.229 17.5102C112.937 17.2769 112.548 17.1603 112.062 17.1603C111.646 17.1603 111.326 17.2425 111.103 17.4073C110.881 17.5583 110.77 17.7711 110.77 18.0455C110.77 18.375 110.944 18.622 111.291 18.7867C111.652 18.9515 112.208 19.1162 112.959 19.2809C113.82 19.5005 114.521 19.7201 115.063 19.9398C115.604 20.1456 116.077 20.4888 116.48 20.9692C116.897 21.4359 117.112 22.0673 117.126 22.8634C117.126 23.536 116.931 24.14 116.542 24.6753C116.167 25.1969 115.619 25.6086 114.897 25.9106C114.188 26.2126 113.361 26.3636 112.416 26.3636Z" fill="#728095"/>
<path d="M129.022 15.4546V26.2476H125.644V24.7777C125.302 25.2548 124.835 25.6416 124.242 25.9382C123.663 26.2219 123.018 26.3637 122.307 26.3637C121.464 26.3637 120.72 26.1832 120.075 25.8222C119.43 25.4482 118.93 24.913 118.574 24.2167C118.219 23.5203 118.041 22.7016 118.041 21.7602V15.4546H121.398V21.3153C121.398 22.0375 121.589 22.5984 121.971 22.9981C122.353 23.3979 122.866 23.5977 123.511 23.5977C124.17 23.5977 124.69 23.3979 125.072 22.9981C125.454 22.5984 125.644 22.0375 125.644 21.3153V15.4546H129.022Z" fill="#728095"/>
<path d="M145.422 15.4546C146.84 15.4546 147.966 15.8608 148.798 16.6731C149.645 17.4855 150.068 18.6139 150.068 20.0581V26.3637H146.588V20.5029C146.588 19.8066 146.391 19.2715 145.995 18.8975C145.613 18.5107 145.081 18.3173 144.399 18.3173C143.716 18.3173 143.178 18.5107 142.782 18.8975C142.4 19.2715 142.209 19.8066 142.209 20.5029V26.3637H138.73V20.5029C138.73 19.8066 138.533 19.2715 138.137 18.8975C137.754 18.5107 137.223 18.3173 136.54 18.3173C135.858 18.3173 135.319 18.5107 134.923 18.8975C134.542 19.2715 134.351 19.8066 134.351 20.5029V26.3637H130.852V15.5706H134.351V16.9246C134.705 16.4733 135.169 16.1187 135.742 15.8608C136.316 15.59 136.963 15.4546 137.686 15.4546C138.545 15.4546 139.31 15.6287 139.978 15.9768C140.661 16.325 141.192 16.8215 141.575 17.4662C141.971 16.873 142.509 16.3895 143.192 16.0155C143.874 15.6416 144.617 15.4546 145.422 15.4546Z" fill="#728095"/>
</g>
<defs>
<clipPath id="clip0_613_86187">
<rect width="150.068" height="40" fill="white"/>
</clipPath>
</defs>
</svg>
