<svg width="32" height="32" viewBox="0 0 32 32" fill="none" xmlns="http://www.w3.org/2000/svg">
<path d="M28.0003 18.6667H26.667V4.00008C26.667 3.64646 26.5265 3.30732 26.2765 3.05727C26.0264 2.80722 25.6873 2.66675 25.3337 2.66675L6.66699 2.66675C6.31337 2.66675 5.97423 2.80722 5.72418 3.05727C5.47413 3.30732 5.33366 3.64646 5.33366 4.00008V18.6667H4.00033C3.6467 18.6667 3.30756 18.8072 3.05752 19.0573C2.80747 19.3073 2.66699 19.6465 2.66699 20.0001C2.66699 20.3537 2.80747 20.6928 3.05752 20.9429C3.30756 21.1929 3.6467 21.3334 4.00033 21.3334H14.667V22.8667L8.60033 26.8667C8.35144 27.0208 8.16016 27.2525 8.05602 27.5261C7.95187 27.7996 7.94064 28.0998 8.02405 28.3804C8.10747 28.661 8.28089 28.9063 8.51757 29.0786C8.75425 29.2508 9.04103 29.3403 9.33366 29.3334C9.59579 29.3364 9.85227 29.2571 10.067 29.1067L14.667 26.0667V28.0001C14.667 28.3537 14.8075 28.6928 15.0575 28.9429C15.3076 29.1929 15.6467 29.3334 16.0003 29.3334C16.3539 29.3334 16.6931 29.1929 16.9431 28.9429C17.1932 28.6928 17.3337 28.3537 17.3337 28.0001V26.0667L21.9337 29.1067C22.1484 29.2571 22.4049 29.3364 22.667 29.3334C22.9519 29.3312 23.2285 29.2378 23.4565 29.067C23.6844 28.8961 23.8516 28.6567 23.9336 28.3839C24.0156 28.1111 24.0081 27.8192 23.9121 27.5509C23.8161 27.2827 23.6368 27.0523 23.4003 26.8934L17.3337 22.8934V21.3334H28.0003C28.3539 21.3334 28.6931 21.1929 28.9431 20.9429C29.1932 20.6928 29.3337 20.3537 29.3337 20.0001C29.3337 19.6465 29.1932 19.3073 28.9431 19.0573C28.6931 18.8072 28.3539 18.6667 28.0003 18.6667ZM24.0003 18.6667H8.00033V5.33341H24.0003V18.6667ZM12.0003 16.0001C12.2199 15.9989 12.4359 15.9436 12.6289 15.8389C12.822 15.7342 12.9862 15.5835 13.107 15.4001L14.8803 12.7334L16.387 14.2534C16.5269 14.3942 16.6964 14.5019 16.8833 14.5688C17.0701 14.6357 17.2695 14.6601 17.467 14.6401C17.6636 14.6185 17.8529 14.5535 18.0212 14.4497C18.1896 14.3459 18.3327 14.206 18.4403 14.0401L21.107 10.0401C21.264 9.74732 21.3061 9.40649 21.225 9.08432C21.1439 8.76216 20.9455 8.48187 20.6685 8.29836C20.3916 8.11485 20.0561 8.04134 19.7278 8.09221C19.3995 8.14309 19.1021 8.31469 18.8937 8.57341L17.1203 11.2401L15.6137 9.72008C15.4738 9.57932 15.3042 9.47156 15.1174 9.40466C14.9305 9.33777 14.7311 9.31343 14.5337 9.33342C14.3371 9.35498 14.1478 9.42001 13.9794 9.52378C13.8111 9.62756 13.6679 9.76748 13.5603 9.93341L10.8937 13.9334C10.7007 14.2274 10.6316 14.5857 10.7016 14.9303C10.7715 15.2749 10.9747 15.5779 11.267 15.7734C11.4817 15.9238 11.7382 16.0031 12.0003 16.0001Z" fill="#728095"/>
</svg>
