<svg width="32" height="32" viewBox="0 0 32 32" fill="none" xmlns="http://www.w3.org/2000/svg">
<path d="M12.667 14H16.0003C16.354 14 16.6931 13.8595 16.9431 13.6095C17.1932 13.3594 17.3337 13.0203 17.3337 12.6667C17.3337 12.3131 17.1932 11.9739 16.9431 11.7239C16.6931 11.4738 16.354 11.3333 16.0003 11.3333H14.667V10.6667C14.667 10.3131 14.5265 9.97392 14.2765 9.72387C14.0264 9.47382 13.6873 9.33334 13.3337 9.33334C12.98 9.33334 12.6409 9.47382 12.3909 9.72387C12.1408 9.97392 12.0003 10.3131 12.0003 10.6667V11.4C11.1902 11.5645 10.4702 12.0241 9.97988 12.6897C9.4896 13.3552 9.26412 14.1792 9.3472 15.0017C9.43027 15.8241 9.81598 16.5864 10.4294 17.1404C11.0429 17.6945 11.8404 18.0008 12.667 18H14.0003C14.1771 18 14.3467 18.0702 14.4717 18.1953C14.5968 18.3203 14.667 18.4899 14.667 18.6667C14.667 18.8435 14.5968 19.0131 14.4717 19.1381C14.3467 19.2631 14.1771 19.3333 14.0003 19.3333H10.667C10.3134 19.3333 9.97424 19.4738 9.72419 19.7239C9.47415 19.9739 9.33367 20.3131 9.33367 20.6667C9.33367 21.0203 9.47415 21.3594 9.72419 21.6095C9.97424 21.8595 10.3134 22 10.667 22H12.0003V22.6667C12.0003 23.0203 12.1408 23.3594 12.3909 23.6095C12.6409 23.8595 12.98 24 13.3337 24C13.6873 24 14.0264 23.8595 14.2765 23.6095C14.5265 23.3594 14.667 23.0203 14.667 22.6667V21.9333C15.4771 21.7688 16.1972 21.3092 16.6875 20.6437C17.1777 19.9781 17.4032 19.1541 17.3201 18.3317C17.2371 17.5092 16.8514 16.747 16.2379 16.1929C15.6244 15.6389 14.827 15.3325 14.0003 15.3333H12.667C12.4902 15.3333 12.3206 15.2631 12.1956 15.1381C12.0706 15.0131 12.0003 14.8435 12.0003 14.6667C12.0003 14.4899 12.0706 14.3203 12.1956 14.1953C12.3206 14.0702 12.4902 14 12.667 14ZM28.0003 16H24.0003V4.00001C24.0013 3.76506 23.9401 3.53404 23.823 3.33034C23.706 3.12663 23.5371 2.95748 23.3337 2.84001C23.131 2.72299 22.9011 2.66138 22.667 2.66138C22.433 2.66138 22.203 2.72299 22.0003 2.84001L18.0003 5.13334L14.0003 2.84001C13.7976 2.72299 13.5677 2.66138 13.3337 2.66138C13.0996 2.66138 12.8697 2.72299 12.667 2.84001L8.667 5.13334L4.667 2.84001C4.46431 2.72299 4.23438 2.66138 4.00034 2.66138C3.76629 2.66138 3.53636 2.72299 3.33367 2.84001C3.1302 2.95748 2.96138 3.12663 2.84431 3.33034C2.72724 3.53404 2.66607 3.76506 2.667 4.00001L2.667 25.3333C2.667 26.3942 3.08843 27.4116 3.83858 28.1618C4.58872 28.9119 5.60614 29.3333 6.667 29.3333H25.3337C26.3945 29.3333 27.4119 28.9119 28.1621 28.1618C28.9122 27.4116 29.3337 26.3942 29.3337 25.3333V17.3333C29.3337 16.9797 29.1932 16.6406 28.9431 16.3905C28.6931 16.1405 28.354 16 28.0003 16ZM6.667 26.6667C6.31338 26.6667 5.97424 26.5262 5.72419 26.2762C5.47415 26.0261 5.33367 25.687 5.33367 25.3333V6.30668L8.00034 7.82668C8.20612 7.93416 8.43484 7.99029 8.667 7.99029C8.89917 7.99029 9.12789 7.93416 9.33367 7.82668L13.3337 5.53334L17.3337 7.82668C17.5395 7.93416 17.7682 7.99029 18.0003 7.99029C18.2325 7.99029 18.4612 7.93416 18.667 7.82668L21.3337 6.30668V25.3333C21.3373 25.7882 21.4184 26.2391 21.5737 26.6667H6.667ZM26.667 25.3333C26.667 25.687 26.5265 26.0261 26.2765 26.2762C26.0264 26.5262 25.6873 26.6667 25.3337 26.6667C24.98 26.6667 24.6409 26.5262 24.3909 26.2762C24.1408 26.0261 24.0003 25.687 24.0003 25.3333V18.6667H26.667V25.3333Z" fill="#728095"/>
</svg>
