<svg width="32" height="32" viewBox="0 0 32 32" fill="none" xmlns="http://www.w3.org/2000/svg">
<path d="M16.0003 14.6667C15.7366 14.6667 15.4788 14.7449 15.2596 14.8915C15.0403 15.038 14.8694 15.2462 14.7685 15.4898C14.6676 15.7335 14.6412 16.0016 14.6926 16.2602C14.7441 16.5188 14.8711 16.7564 15.0575 16.9429C15.244 17.1294 15.4816 17.2563 15.7402 17.3078C15.9989 17.3592 16.2669 17.3328 16.5106 17.2319C16.7542 17.131 16.9625 16.9601 17.109 16.7408C17.2555 16.5216 17.3337 16.2638 17.3337 16.0001C17.3337 15.6465 17.1932 15.3073 16.9431 15.0573C16.6931 14.8072 16.354 14.6667 16.0003 14.6667ZM16.0003 2.66675C13.3632 2.66675 10.7854 3.44873 8.59273 4.91382C6.40007 6.37891 4.69111 8.46129 3.68194 10.8976C2.67277 13.334 2.40872 16.0149 2.92319 18.6013C3.43766 21.1877 4.70754 23.5635 6.57224 25.4282C8.43694 27.2929 10.8127 28.5627 13.3991 29.0772C15.9855 29.5917 18.6664 29.3276 21.1028 28.3185C23.5391 27.3093 25.6215 25.6003 27.0866 23.4077C28.5517 21.215 29.3337 18.6372 29.3337 16.0001C29.3337 14.2491 28.9888 12.5153 28.3187 10.8976C27.6487 9.27996 26.6665 7.81011 25.4284 6.57199C24.1903 5.33388 22.7205 4.35175 21.1028 3.68169C19.4851 3.01162 17.7513 2.66675 16.0003 2.66675ZM17.3337 26.5734V22.6667C17.3337 22.3131 17.1932 21.974 16.9431 21.7239C16.6931 21.4739 16.354 21.3334 16.0003 21.3334C15.6467 21.3334 15.3076 21.4739 15.0575 21.7239C14.8075 21.974 14.667 22.3131 14.667 22.6667V26.5734C12.3203 26.2758 10.1391 25.2066 8.46645 23.534C6.79379 21.8613 5.72459 19.6801 5.427 17.3334H9.33366C9.68729 17.3334 10.0264 17.1929 10.2765 16.9429C10.5265 16.6928 10.667 16.3537 10.667 16.0001C10.667 15.6465 10.5265 15.3073 10.2765 15.0573C10.0264 14.8072 9.68729 14.6667 9.33366 14.6667H5.427C5.72459 12.3201 6.79379 10.1388 8.46645 8.4662C10.1391 6.79354 12.3203 5.72434 14.667 5.42675V9.33342C14.667 9.68704 14.8075 10.0262 15.0575 10.2762C15.3076 10.5263 15.6467 10.6667 16.0003 10.6667C16.354 10.6667 16.6931 10.5263 16.9431 10.2762C17.1932 10.0262 17.3337 9.68704 17.3337 9.33342V5.42675C19.6804 5.72434 21.8616 6.79354 23.5342 8.4662C25.2069 10.1388 26.2761 12.3201 26.5737 14.6667H22.667C22.3134 14.6667 21.9742 14.8072 21.7242 15.0573C21.4741 15.3073 21.3337 15.6465 21.3337 16.0001C21.3337 16.3537 21.4741 16.6928 21.7242 16.9429C21.9742 17.1929 22.3134 17.3334 22.667 17.3334H26.5737C26.2761 19.6801 25.2069 21.8613 23.5342 23.534C21.8616 25.2066 19.6804 26.2758 17.3337 26.5734Z" fill="#728095"/>
</svg>
