<svg width="152" height="40" viewBox="0 0 152 40" fill="none" xmlns="http://www.w3.org/2000/svg">
<path d="M27.9407 0L0 23.1397H18.8661L11.3177 39.9763L39.5053 16.9908H19.8558L27.9407 0Z" fill="#3182CE"/>
<path d="M27.9404 0L15.3196 18.6819L34.0724 18.6819L11.3174 39.9763L39.505 16.9908L19.8555 16.9908L27.9404 0Z" fill="#2B6CB0"/>
<path d="M27.9407 0L0 23.1397H18.8661L11.3177 39.9763L23.308 21.4486H5.57848L27.9407 0Z" fill="#4299E1"/>
<path d="M106.696 28.3403C105.453 28.3403 104.311 28.2312 103.272 28.0131C102.233 27.7804 101.29 27.475 100.441 27.0969C99.6069 26.7042 98.846 26.2607 98.1582 25.7663L99.8703 22.7996C101.07 23.6431 102.277 24.2611 103.492 24.6538C104.706 25.0319 105.87 25.2209 106.982 25.2209C107.465 25.2209 107.969 25.1773 108.496 25.09C109.023 24.9882 109.462 24.821 109.813 24.5883C110.179 24.3411 110.362 24.0066 110.362 23.5849C110.362 23.3377 110.274 23.1341 110.099 22.9741C109.938 22.7996 109.711 22.6614 109.418 22.5596C109.125 22.4579 108.782 22.3779 108.387 22.3197C108.006 22.247 107.589 22.1961 107.135 22.167C106.696 22.1234 106.25 22.0797 105.797 22.0361C104.772 21.9343 103.843 21.7671 103.009 21.5344C102.175 21.3017 101.458 21.0036 100.858 20.64C100.273 20.2619 99.819 19.8039 99.4971 19.2658C99.1752 18.7277 99.0142 18.1097 99.0142 17.4116C99.0142 16.6263 99.2045 15.9283 99.5849 15.3175C99.98 14.7067 100.529 14.1977 101.231 13.7905C101.933 13.3688 102.738 13.0489 103.646 12.8307C104.567 12.6126 105.555 12.5035 106.609 12.5035C107.706 12.5035 108.694 12.6053 109.572 12.8089C110.464 12.998 111.247 13.2597 111.92 13.5942C112.608 13.9287 113.179 14.2923 113.632 14.6849L111.833 17.2589C111.379 16.9244 110.852 16.6409 110.252 16.4082C109.667 16.161 109.045 15.9719 108.387 15.841C107.743 15.7102 107.099 15.6447 106.455 15.6447C105.797 15.6447 105.204 15.7029 104.677 15.8192C104.165 15.921 103.755 16.081 103.448 16.2991C103.155 16.5027 103.009 16.7718 103.009 17.1062C103.009 17.4116 103.133 17.6661 103.382 17.8697C103.646 18.0588 103.982 18.2115 104.392 18.3278C104.801 18.4296 105.255 18.5096 105.753 18.5677C106.25 18.6259 106.733 18.6841 107.201 18.7423C108.079 18.8295 108.943 18.9458 109.791 19.0913C110.64 19.2222 111.401 19.4403 112.074 19.7457C112.762 20.0365 113.31 20.4583 113.72 21.0109C114.13 21.5489 114.335 22.2833 114.335 23.2141C114.335 24.2902 114.005 25.2136 113.347 25.9844C112.689 26.7406 111.781 27.3223 110.625 27.7295C109.484 28.1367 108.174 28.3403 106.696 28.3403Z" fill="white"/>
<path d="M139.045 28.2994V24.981H143.171V16.1246H139.045L138.972 12.9252H151.051V16.1246H146.903V24.981H151.051V28.2994H139.045Z" fill="white"/>
<path d="M45.1162 25.7932L45.1576 28.2994H60.6318L60.5904 24.9643H50.9294L60.3489 15.4317V12.9252H46.6147V16.4352H54.3817L45.1162 25.7932Z" fill="white"/>
<path d="M63.7414 28.2994V12.9252H77.5254V16.0155H67.363V18.8513H76.5377V21.8616H67.363V25.0952H77.7449V28.2994H63.7414Z" fill="white"/>
<path d="M129.559 28.253C127.921 28.253 126.494 27.9331 125.279 27.2932C124.065 26.6533 123.121 25.7735 122.448 24.6538C121.775 23.534 121.438 22.167 121.438 20.7273V12.9252H125.213V20.7273C125.213 26.0002 134.015 26.0002 134.015 20.7273V12.9252H137.659V20.7273C137.659 22.167 137.322 23.534 136.649 24.6538C135.976 25.7735 135.032 26.6533 133.818 27.2932C132.603 27.9331 131.184 28.253 129.559 28.253Z" fill="white"/>
<path d="M80.4508 20.7273V12.9252H84.226V20.7273C84.226 26.1744 93.0276 26.1744 93.0276 20.7273V12.9252H96.6712V20.7273C96.6712 30.8844 80.4508 30.8164 80.4508 20.7273Z" fill="white"/>
</svg>
