<svg width="20" height="20" viewBox="0 0 20 20" fill="none" xmlns="http://www.w3.org/2000/svg">
<path d="M16.4733 15.5267L13.9999 13.0733C14.96 11.8763 15.4249 10.3569 15.2991 8.82753C15.1733 7.2982 14.4664 5.87519 13.3236 4.85109C12.1808 3.827 10.6891 3.27967 9.15522 3.32164C7.62129 3.36362 6.16175 3.99171 5.0767 5.07676C3.99164 6.16181 3.36356 7.62136 3.32158 9.15528C3.27961 10.6892 3.82694 12.1809 4.85103 13.3237C5.87512 14.4664 7.29814 15.1734 8.82747 15.2992C10.3568 15.425 11.8762 14.9601 13.0733 14L15.5266 16.4533C15.5886 16.5158 15.6623 16.5654 15.7436 16.5993C15.8248 16.6331 15.9119 16.6505 15.9999 16.6505C16.0879 16.6505 16.1751 16.6331 16.2563 16.5993C16.3376 16.5654 16.4113 16.5158 16.4733 16.4533C16.5934 16.329 16.6606 16.1629 16.6606 15.99C16.6606 15.8171 16.5934 15.651 16.4733 15.5267ZM9.33327 14C8.41029 14 7.50804 13.7263 6.74061 13.2135C5.97318 12.7007 5.37504 11.9719 5.02183 11.1192C4.66862 10.2665 4.57621 9.32815 4.75627 8.42291C4.93634 7.51766 5.38079 6.68614 6.03344 6.0335C6.68608 5.38085 7.5176 4.9364 8.42285 4.75633C9.32809 4.57627 10.2664 4.66868 11.1191 5.02189C11.9718 5.3751 12.7007 5.97324 13.2135 6.74067C13.7262 7.5081 13.9999 8.41035 13.9999 9.33333C13.9999 10.571 13.5083 11.758 12.6331 12.6332C11.7579 13.5083 10.5709 14 9.33327 14Z" fill="#728095"/>
</svg>
