<svg width="48" height="48" viewBox="0 0 48 48" fill="none" xmlns="http://www.w3.org/2000/svg">
<path d="M42.24 21.42L25.42 4.58003C25.2332 4.39467 25.0115 4.24802 24.7678 4.14849C24.5242 4.04896 24.2632 3.99851 24 4.00003L6.00003 4.00003C5.4696 4.00003 4.96089 4.21075 4.58582 4.58582C4.21075 4.96089 4.00003 5.4696 4.00003 6.00003L4.00003 24C3.99851 24.2632 4.04896 24.5242 4.14849 24.7678C4.24802 25.0115 4.39467 25.2332 4.58003 25.42L21.42 42.24C22.545 43.3636 24.07 43.9948 25.66 43.9948C27.25 43.9948 28.775 43.3636 29.9 42.24L42.24 30C43.3636 28.875 43.9948 27.35 43.9948 25.76C43.9948 24.17 43.3636 22.645 42.24 21.52V21.42ZM39.42 27.06L27.06 39.4C26.6853 39.7725 26.1784 39.9816 25.65 39.9816C25.1217 39.9816 24.6148 39.7725 24.24 39.4L8.00003 23.18V8.00003H23.18L39.42 24.24C39.6054 24.4269 39.752 24.6485 39.8516 24.8922C39.9511 25.1359 40.0016 25.3968 40 25.66C39.9978 26.1847 39.7895 26.6875 39.42 27.06Z" fill="url(#paint0_linear_620_392112)"/>
<defs>
<linearGradient id="paint0_linear_620_392112" x1="4" y1="4" x2="51.8693" y2="19.2074" gradientUnits="userSpaceOnUse">
<stop stop-color="#1E84E3"/>
<stop offset="1" stop-color="#5C26D3"/>
</linearGradient>
</defs>
</svg>
