<svg width="48" height="48" viewBox="0 0 48 48" fill="none" xmlns="http://www.w3.org/2000/svg">
<path d="M36 10H38V12C38 12.5305 38.2107 13.0392 38.5858 13.4143C38.9609 13.7893 39.4696 14 40 14C40.5304 14 41.0392 13.7893 41.4142 13.4143C41.7893 13.0392 42 12.5305 42 12V10H44C44.5304 10 45.0392 9.78933 45.4142 9.41426C45.7893 9.03919 46 8.53048 46 8.00005C46 7.46961 45.7893 6.9609 45.4142 6.58583C45.0392 6.21076 44.5304 6.00005 44 6.00005H42V4.00005C42 3.46961 41.7893 2.9609 41.4142 2.58583C41.0392 2.21076 40.5304 2.00005 40 2.00005C39.4696 2.00005 38.9609 2.21076 38.5858 2.58583C38.2107 2.9609 38 3.46961 38 4.00005V6.00005H36C35.4696 6.00005 34.9609 6.21076 34.5858 6.58583C34.2107 6.9609 34 7.46961 34 8.00005C34 8.53048 34.2107 9.03919 34.5858 9.41426C34.9609 9.78933 35.4696 10 36 10ZM22 18V30C22 31.5913 22.6321 33.1175 23.7574 34.2427C24.8826 35.3679 26.4087 36 28 36H30C31.5913 36 33.1174 35.3679 34.2427 34.2427C35.3679 33.1175 36 31.5913 36 30V18C36 16.4087 35.3679 14.8826 34.2427 13.7574C33.1174 12.6322 31.5913 12 30 12H28C26.4087 12 24.8826 12.6322 23.7574 13.7574C22.6321 14.8826 22 16.4087 22 18V18ZM32 18V30C32 30.5305 31.7893 31.0392 31.4142 31.4143C31.0391 31.7893 30.5304 32 30 32H28C27.4696 32 26.9609 31.7893 26.5858 31.4143C26.2107 31.0392 26 30.5305 26 30V18C26 17.4696 26.2107 16.9609 26.5858 16.5858C26.9609 16.2108 27.4696 16 28 16H30C30.5304 16 31.0391 16.2108 31.4142 16.5858C31.7893 16.9609 32 17.4696 32 18ZM43.2 18C42.9426 18.0525 42.698 18.1552 42.4803 18.3022C42.2626 18.4492 42.076 18.6377 41.9311 18.8569C41.7862 19.076 41.686 19.3216 41.636 19.5795C41.5861 19.8374 41.5874 20.1027 41.64 20.36C42.4209 24.1525 41.9581 28.0956 40.3202 31.6041C38.6824 35.1126 35.9569 37.9995 32.5483 39.8362C29.1397 41.6729 25.2296 42.3615 21.3986 41.7998C17.5676 41.2381 14.0198 39.456 11.2819 36.7181C8.54404 33.9802 6.76198 30.4324 6.20028 26.6014C5.63857 22.7704 6.32718 18.8604 8.16387 15.4518C10.0006 12.0432 12.8874 9.31764 16.396 7.67981C19.9045 6.04199 23.8476 5.57917 27.64 6.36005C28.1704 6.46613 28.7213 6.35716 29.1714 6.0571C29.6215 5.75704 29.9339 5.29048 30.04 4.76005C30.1461 4.22961 30.0371 3.67876 29.7371 3.22867C29.437 2.77859 28.9704 2.46613 28.44 2.36004C26.9764 2.08735 25.4885 1.96671 24 2.00005C19.6488 2.00005 15.3953 3.29032 11.7775 5.70771C8.15958 8.1251 5.33979 11.561 3.67466 15.581C2.00953 19.601 1.57386 24.0245 2.42273 28.292C3.27161 32.5596 5.36691 36.4796 8.44366 39.5564C11.5204 42.6332 15.4404 44.7284 19.708 45.5773C23.9756 46.4262 28.3991 45.9905 32.419 44.3254C36.439 42.6603 39.875 39.8405 42.2923 36.2226C44.7097 32.6047 46 28.3512 46 24C46.0043 22.5222 45.8568 21.0478 45.56 19.6C45.5121 19.339 45.4127 19.0902 45.2677 18.8679C45.1227 18.6457 44.9348 18.4546 44.7152 18.3057C44.4955 18.1568 44.2484 18.053 43.9883 18.0006C43.7282 17.9481 43.4602 17.9479 43.2 18ZM14 14L14 34C14 34.5305 14.2107 35.0392 14.5858 35.4143C14.9609 35.7893 15.4696 36 16 36C16.5304 36 17.0391 35.7893 17.4142 35.4143C17.7893 35.0392 18 34.5305 18 34V14C18 13.4696 17.7893 12.9609 17.4142 12.5858C17.0391 12.2108 16.5304 12 16 12C15.4696 12 14.9609 12.2108 14.5858 12.5858C14.2107 12.9609 14 13.4696 14 14Z" fill="url(#paint0_linear_620_392052)"/>
<defs>
<linearGradient id="paint0_linear_620_392052" x1="2" y1="1.99463" x2="54.6645" y2="18.7234" gradientUnits="userSpaceOnUse">
<stop stop-color="#1E84E3"/>
<stop offset="1" stop-color="#5C26D3"/>
</linearGradient>
</defs>
</svg>
